<svg id="Layer_1" data-name="Layer 1" xmlns="http://www.w3.org/2000/svg" xmlns:xlink="http://www.w3.org/1999/xlink" viewBox="0 0 288 180"><defs><style>.cls-1,.cls-2{fill:none;}.cls-2{clip-rule:evenodd;}.cls-3{clip-path:url(#clip-path);}.cls-4{clip-path:url(#clip-path-2);}.cls-5{clip-path:url(#clip-path-3);}.cls-6{clip-path:url(#clip-path-4);}.cls-7{clip-path:url(#clip-path-5);}.cls-8{clip-path:url(#clip-path-6);}.cls-9{clip-path:url(#clip-path-7);}.cls-10{clip-path:url(#clip-path-8);}.cls-11{clip-path:url(#clip-path-9);}.cls-12{clip-path:url(#clip-path-10);}.cls-13{clip-path:url(#clip-path-11);}.cls-14{clip-path:url(#clip-path-12);}.cls-15{clip-path:url(#clip-path-13);}.cls-16{clip-path:url(#clip-path-14);}.cls-17{clip-path:url(#clip-path-15);}.cls-18{clip-path:url(#clip-path-16);}.cls-19{clip-path:url(#clip-path-17);}.cls-20{clip-path:url(#clip-path-18);}.cls-21{clip-path:url(#clip-path-19);}.cls-22{clip-path:url(#clip-path-20);}.cls-23{clip-path:url(#clip-path-21);}.cls-24{clip-path:url(#clip-path-22);}.cls-25{clip-path:url(#clip-path-23);}.cls-26{clip-path:url(#clip-path-24);}.cls-27{clip-path:url(#clip-path-25);}.cls-28{clip-path:url(#clip-path-26);}.cls-29{clip-path:url(#clip-path-27);}.cls-30{clip-path:url(#clip-path-28);}.cls-31{clip-path:url(#clip-path-29);}.cls-32{clip-path:url(#clip-path-30);}.cls-33{clip-path:url(#clip-path-31);}.cls-34{clip-path:url(#clip-path-32);}.cls-35{clip-path:url(#clip-path-33);}.cls-36{clip-path:url(#clip-path-34);}.cls-37{clip-path:url(#clip-path-35);}.cls-38{clip-path:url(#clip-path-36);}.cls-39{clip-path:url(#clip-path-37);}.cls-40{clip-path:url(#clip-path-38);}.cls-41{clip-path:url(#clip-path-39);}.cls-42{clip-path:url(#clip-path-40);}.cls-43{clip-path:url(#clip-path-41);}.cls-44{clip-path:url(#clip-path-42);}.cls-45{clip-path:url(#clip-path-43);}.cls-46{clip-path:url(#clip-path-44);}.cls-47{clip-path:url(#clip-path-45);}.cls-48{clip-path:url(#clip-path-46);}.cls-49{clip-path:url(#clip-path-47);}.cls-50{clip-path:url(#clip-path-48);}.cls-51{clip-path:url(#clip-path-49);}.cls-52{clip-path:url(#clip-path-50);}.cls-53{clip-path:url(#clip-path-51);}.cls-54{clip-path:url(#clip-path-52);}.cls-55{clip-path:url(#clip-path-53);}.cls-56{clip-path:url(#clip-path-54);}.cls-57{clip-path:url(#clip-path-55);}.cls-58{clip-path:url(#clip-path-56);}.cls-59{clip-path:url(#clip-path-57);}.cls-60{fill:#edefef;}.cls-61{fill:#ff624d;}.cls-62,.cls-65{fill:#dbdddd;}.cls-62,.cls-63,.cls-64{fill-rule:evenodd;}.cls-63{fill:#d0d0d0;}.cls-64{fill:#9ebee5;}.cls-66{fill:#42b5a1;}.cls-67{fill:#fcfcfc;}.cls-68{opacity:0.44;}</style><clipPath id="clip-path"><rect class="cls-1" x="850" y="-756.08" width="123" height="77"/></clipPath><clipPath id="clip-path-2"><rect class="cls-1" x="841" y="-747.08" width="123" height="77"/></clipPath><clipPath id="clip-path-3"><rect class="cls-1" x="848" y="-742.08" width="111" height="4"/></clipPath><clipPath id="clip-path-4"><polygon class="cls-1" points="853 -735.59 857.25 -731.08 861 -734.65 855.85 -739.08 853 -735.59"/></clipPath><clipPath id="clip-path-5"><polygon class="cls-1" points="893.53 -757.54 893 -751.12 898 -751.08 897.9 -758.08 893.53 -757.54"/></clipPath><clipPath id="clip-path-6"><polygon class="cls-1" points="892 -713.93 897.08 -710.08 900 -714.47 894.07 -718.08 892 -713.93"/></clipPath><clipPath id="clip-path-7"><polygon class="cls-1" points="960 -741.76 962.16 -736.08 967 -738.17 963.98 -744.08 960 -741.76"/></clipPath><clipPath id="clip-path-8"><polygon class="cls-1" points="873 -684.76 875.16 -679.08 880 -681.17 876.98 -687.08 873 -684.76"/></clipPath><clipPath id="clip-path-9"><polygon class="cls-1" points="920.53 -728.54 920 -722.12 925 -722.08 924.9 -729.08 920.53 -728.54"/></clipPath><clipPath id="clip-path-10"><polygon class="cls-1" points="977.53 -688.54 977 -682.12 982 -682.08 981.9 -689.08 977.53 -688.54"/></clipPath><clipPath id="clip-path-11"><polygon class="cls-1" points="922.53 -670.54 922 -664.12 927 -664.08 926.9 -671.08 922.53 -670.54"/></clipPath><clipPath id="clip-path-12"><polygon class="cls-2" points="938.77 -666.08 938.18 -660.48 931 -653.08 940.09 -657.25 942 -664.93 938.77 -666.08"/></clipPath><clipPath id="clip-path-13"><polygon class="cls-2" points="956 -667.07 960.07 -664.93 958.95 -657.08 963 -665.8 959.33 -670.08 956 -667.07"/></clipPath><clipPath id="clip-path-14"><polygon class="cls-2" points="948.53 -690.08 948 -681.03 955.11 -665.08 961.53 -669.84 956.64 -680.66 963 -687.8 948.53 -690.08"/></clipPath><clipPath id="clip-path-15"><polygon class="cls-2" points="947.8 -690.6 939.96 -679.5 937 -664.82 944.64 -662.08 948.83 -677.7 962 -691.08 947.8 -690.6"/></clipPath><clipPath id="clip-path-16"><path class="cls-2" d="M955.75-691.08,944.9-676.34s-2,10.85-1.9,12.17a2.31,2.31,0,0,0,1.94,2.09l4.13-15.57L962-691Z"/></clipPath><clipPath id="clip-path-17"><path class="cls-1" d="M952.21-713.93l-7-3.15-.2,3.91s8.63,5.52,9.48,6.8,3.52-2.08,3.52-2.08S954.69-712.4,952.21-713.93Z"/></clipPath><clipPath id="clip-path-18"><path class="cls-2" d="M962.44-713.15a1.53,1.53,0,0,0-.89-1.6c-1.06-.47-1.95-.43-2.43.09s.08,2.76-1.09,3.43a7,7,0,0,1-2.87,1.33c-1.81.44.14,1.53-.44,1.56a9.26,9.26,0,0,0-3.6,1,16.12,16.12,0,0,0-3.68,3.05,14.3,14.3,0,0,0-2.16,3.14c.13,1.15,4.52,1.67,4.52,1.67a13.31,13.31,0,0,1,1.34-1.26c.33,1.19-6.14,12.68-6.14,12.68s18.8,2.36,19.35,1.94c2-1.51-1.2-10.37-1.13-14.66,0-1.47-.61-7.86-.61-7.86Z"/></clipPath><clipPath id="clip-path-19"><path class="cls-2" d="M961.84-700.77c0-1.47-.74-7.87-.74-7.87l-.24-4.51a1.57,1.57,0,0,0-1-1.59c-1.11-.46-2-.46-2.52.06s.12,2.77-1.08,3.41l-.17.1a2.19,2.19,0,0,1,0,.51l-.79,2.77c.4-.67,2.47,7.08.14,13.69-2.94,8.33,7.48,8.3,7.85,8.05C965.4-687.65,961.84-696.48,961.84-700.77Z"/></clipPath><clipPath id="clip-path-20"><path class="cls-2" d="M963.15-715.56c-1.53-1.89-2-2.89-4.06-3.44-.69-.17-2.45-1-2.94-1.06a2.05,2.05,0,0,0-2,.84l-.26,1.89a4.55,4.55,0,0,0-1.26,1.17,7.37,7.37,0,0,0-.67,1.74l1.5-.68-.22,1.41-1,.5,3.53,3.27,1-.67a4,4,0,0,0,1.7,3.47c1.56,1.15,2.36,1.77,4.41,1.31,1.66-.37,1.49,1.38,4.37.46s3.56-3.21,1.69-5.62c-1.51-1.95-2-1.32-3.83-2.38C963.63-714.24,964.58-713.79,963.15-715.56Z"/></clipPath><clipPath id="clip-path-21"><path class="cls-2" d="M968-711c-1.43-1.95-1.92-1.31-3.63-2.38-1.4-.86-.5-.41-1.86-2.2s-1.93-2.9-3.87-3.44c-.65-.18-2.32-1-2.78-1.06a1.86,1.86,0,0,0-1.86.81v.07c.61.26,1.29.56,1.66.67,1.93.54,1.62,2.54,3.07,4.43s1.25.35,2.65,1.21c1.72,1.06.47,2.38,1.91,4.34,1.58,2.15,2.39,1.59,1,3.32a3.19,3.19,0,0,0,2.15-.15C969.13-706.27,969.78-708.56,968-711Z"/></clipPath><clipPath id="clip-path-22"><path class="cls-2" d="M954.05-719.08a2.19,2.19,0,0,0-1.34.54c-.64.54-.84.8-1.43,1.31a3.56,3.56,0,0,0-1.27,2.58c-.07,1.27.08,2.33,1.31,2.82s1.33.53,1.92,1.55.76,1.3.76,1.3a2.59,2.59,0,0,0,2.71.75c.59-.23.11-.69,0-1.44a4.64,4.64,0,0,1-.09-1,3,3,0,0,1-1.18-.14,4.29,4.29,0,0,1-1.13-.8,4.27,4.27,0,0,1-1-2.24s.76-.88,0-1.24a.79.79,0,0,0-.62,0,.73.73,0,0,0-.44.42l-.39.28a4.9,4.9,0,0,1,.88-1.9c.58-.59.69-.55,1-.94a1.9,1.9,0,0,0,.26-1.29A3.25,3.25,0,0,1,954.05-719.08Z"/></clipPath><clipPath id="clip-path-23"><path class="cls-1" d="M951-717.08s-.11,0-.33.31a4.23,4.23,0,0,0-.44.69.47.47,0,0,1-.23-.47C950.12-716.8,950.84-717,951-717.08Z"/></clipPath><clipPath id="clip-path-24"><path class="cls-2" d="M952-713.29s.28-.83.53-.79.52.09.46.33.06.33-.29.6A.55.55,0,0,1,952-713.29Z"/></clipPath><clipPath id="clip-path-25"><path class="cls-1" d="M932.15-720.63a2.24,2.24,0,0,1,2.81,0,38.07,38.07,0,0,0,5.53,2.07l5.51,2.18-.38,3.25a44.5,44.5,0,0,0-4.77-2.89c-1.7-.77-4.61-1.95-5.3-2.31s-.75.11-1.91.13a2.14,2.14,0,0,1-1.61-1s-2.38,1.78-2,.87A10.12,10.12,0,0,1,932.15-720.63Z"/></clipPath><clipPath id="clip-path-26"><path class="cls-1" d="M949-700.12a14.41,14.41,0,0,1-1.73-.38c-.39-.12-1.29-.49-1.29-.49s-1.34,1.37-1.72,1.25-2.61-3.9-3.17-4.76,0-1.28-.34-2.15a4.23,4.23,0,0,0-1.74-2.08c-.2,0,.14.39.32.92s.19.74-.14.74-.64-.71-.7-1.22-.24-1.49-.25-1.68-.25-.17-.39.27a6.15,6.15,0,0,0-.29,2c0,.35.16.53,0,.45s-.36-1.07-.47-1.1-.1.12-.09.6a2,2,0,0,0,.48,1.23c.33.55.8,1,1.18,1.7s2.3,4.43,2.53,5.11,1.74,3.51,3,3.68S948.51-699.06,949-700.12Z"/></clipPath><clipPath id="clip-path-27"><path class="cls-2" d="M962.5-666.08a13,13,0,0,0-1.56,3.33,10.65,10.65,0,0,1-1.43,3.19l-1.1,2.39s-.87,2.67-.08,2a14.94,14.94,0,0,0,2.62-3c.67-1.07,1-2.4,1.66-3.32a16.31,16.31,0,0,0,1.39-2.77Z"/></clipPath><clipPath id="clip-path-28"><path class="cls-2" d="M963-661.73l.69.65s1.19-.93,1.28-1.46a3.59,3.59,0,0,0-.05-1.18l-.46-.36Z"/></clipPath><clipPath id="clip-path-29"><path class="cls-2" d="M940.73-658.08a14.82,14.82,0,0,0-3.41,1.67c-.89.77-2.13.76-3.53,1.39l-2.58,1.36s-2,1.65-.88,1.58a16.68,16.68,0,0,0,4.08-.81c1.23-.45,2.36-1.27,3.49-1.61a17.43,17.43,0,0,0,2.91-1.33l.19-.94Z"/></clipPath><clipPath id="clip-path-30"><path class="cls-2" d="M938-655l0,.88s1.08-.13,1.4-.5a4.61,4.61,0,0,0,.56-1l-.06-.5Z"/></clipPath><clipPath id="clip-path-31"><path class="cls-2" d="M859.89-664s-2.14,5.78-1.83,6.32,4.94,3.56,4.94,3.56l-8-.77,1.3-9.23Z"/></clipPath><clipPath id="clip-path-32"><polygon class="cls-2" points="838 -666.95 834.26 -663.52 837.38 -656.08 831 -663.45 834.77 -669.08 838 -666.95"/></clipPath><clipPath id="clip-path-33"><path class="cls-1" d="M864.26-720.08a3.61,3.61,0,0,1,.63.89c0,.23.19.74.05.89s-.94.22-.94.22Z"/></clipPath><clipPath id="clip-path-34"><path class="cls-2" d="M861-715.88a9.24,9.24,0,0,1-1.2,2.52,18.64,18.64,0,0,0-1.84,2.28s-4-.8-4-1.69,2.31-4.57,2.94-5.21S861-715.88,861-715.88Z"/></clipPath><clipPath id="clip-path-35"><path class="cls-2" d="M865-721.22a12,12,0,0,1-.31,3.09c-.34.79,0,2-1.05,2.88a3.41,3.41,0,0,1-3.4,1,3.14,3.14,0,0,1-2.43-2.11c-.41-1-2.43-2.74-1.63-4.94s4.08-4.3,5.72-3.74A4.23,4.23,0,0,1,865-721.22Z"/></clipPath><clipPath id="clip-path-36"><path class="cls-1" d="M864-723.07a5.29,5.29,0,0,1-1.31,1.74c-.84.68-.84,2.82-1.88,2.82-.23,0-.64.11-.76,0-.35-.47-.79-.68-1.12-.33a2.07,2.07,0,0,0-.31,1.4,4.94,4.94,0,0,0,.31,1c.33,1.12-3.14-.34-3.14-.34A5.23,5.23,0,0,1,855-720a27.58,27.58,0,0,1,1.27-6.1l6.29,1.33Z"/></clipPath><clipPath id="clip-path-37"><path class="cls-1" d="M860-719a6.79,6.79,0,0,1-.77-.93c-1.21-1.78-2-5.94-2-5.94l-.79-.16A24.77,24.77,0,0,0,855-720a5.15,5.15,0,0,0,.89,3.2s3.83,1.43,3.48.32a4.43,4.43,0,0,1-.33-1,2,2,0,0,1,.33-1.4A.54.54,0,0,1,860-719Z"/></clipPath><clipPath id="clip-path-38"><path class="cls-1" d="M878-720.8l1.26-2.13s.07-1.29.21-2.25.25-1.71.5-1.71.15,1.68.15,1.68.32-1.64,1.32-1.8a6,6,0,0,1,1.8,0,4.42,4.42,0,0,1,1.76.9c-.2.6-2.58-.44-3,.66-.23.61-.34,1.51,0,1.82.71.6,1.77-1.7,2-1.67s.63,1.09-.17,2.32c-.43.64-.72,1.27-1.53,1.47a2.15,2.15,0,0,0-1.63,1.1,12.54,12.54,0,0,1-.92,1.33Z"/></clipPath><clipPath id="clip-path-39"><path class="cls-1" d="M843-696.37l-1.37,2.11s-.07,1.28-.23,2.24-.26,1.69-.53,1.69-.19-2.76-.19-2.76a7,7,0,0,1-1.69,2.33,2.64,2.64,0,0,1-1.72.68c-.42,0-1.72.17-1.12-.62.38-.49.65-1,1.86-2.64.38-.52,1.72-2.76,2.14-3.42a12.71,12.71,0,0,1,1-1.32Z"/></clipPath><clipPath id="clip-path-40"><polygon class="cls-1" points="858.54 -692.38 862 -676.46 859.83 -659.08 855.49 -659.6 855.16 -675.5 852.44 -681.93 847.67 -674.02 838.34 -666.51 834 -668.36 843.56 -678.31 849.17 -693.08 858.54 -692.38"/></clipPath><clipPath id="clip-path-41"><path class="cls-2" d="M877.74-722.08s-2.83,5.47-7,7.54c-3.86,1.88-5.31,2.27-7.88,1.94a34.1,34.1,0,0,1-3.5-.6l-3.5-.08s-5.47-1-8.39.41-5.51,6.87-5.51,6.87L839-696.85l3.92.45,3.05-6.73.88-3.75,1.29,14.47,10.85.33,3.79-13.58a17.84,17.84,0,0,0,10.08-3.87c6.25-4.84,8.14-9.36,8.14-9.36Z"/></clipPath><clipPath id="clip-path-42"><path class="cls-1" d="M855.23-657.08s.1,1,1.63,1.3c1.8.3,2.37.15,2.66-.23s-.34-.67,0-.64a19.79,19.79,0,0,1,3.85,1.53c1.32.77,1.68,1.43,1.62,1.92s-7.2-.6-7.2-.6-2.73-.06-2.79-.82A13.65,13.65,0,0,1,855.23-657.08Z"/></clipPath><clipPath id="clip-path-43"><path class="cls-1" d="M856-658.07l-.27,1-.48-.26a.52.52,0,0,1-.25-.43c0-.13.17-.25.43-.29A3.62,3.62,0,0,1,856-658.07Z"/></clipPath><clipPath id="clip-path-44"><path class="cls-2" d="M854.15-655.08l-.15,1.33a4.07,4.07,0,0,0,2,1.06c1.12.19,6.7.61,7.31.61h.61l.13-1.2a48.55,48.55,0,0,1-5-.34,21.68,21.68,0,0,1-4-.8C854.54-654.71,854.13-655,854.15-655.08Z"/></clipPath><clipPath id="clip-path-45"><path class="cls-1" d="M831.54-665.08a1.6,1.6,0,0,0,.71,1.91c1.39,1.1,1.92,1.22,2.38,1s.06-.76.32-.58a17,17,0,0,1,2.46,3.16c.73,1.3.68,2.05.38,2.46S832-661,832-661s-2.31-1.32-1.94-2A15.88,15.88,0,0,1,831.54-665.08Z"/></clipPath><clipPath id="clip-path-46"><path class="cls-1" d="M832-664.94l-.89.86s-.08-.23-.11-.36a.69.69,0,0,1,.16-.47.53.53,0,0,1,.48-.16A1.11,1.11,0,0,1,832-664.94Z"/></clipPath><clipPath id="clip-path-47"><path class="cls-2" d="M829.71-663.08l-.71,1a4,4,0,0,0,1.15,1.77c.81.67,5.23,3.68,5.73,4l.5.29.62-.9s-2.78-1.68-4-2.64a29,29,0,0,1-2.93-2.52C829.82-662.58,829.64-663,829.71-663.08Z"/></clipPath><clipPath id="clip-path-48"><path class="cls-1" d="M861-718.34s-.35-1.13-.82-.59.19,1.29.19,1.29l.26.56A1.8,1.8,0,0,0,861-718.34Z"/></clipPath><clipPath id="clip-path-49"><rect class="cls-1" x="574" y="-754.08" width="120" height="81"/></clipPath><clipPath id="clip-path-50"><rect class="cls-1" x="625" y="-736.08" width="92" height="54"/></clipPath><clipPath id="clip-path-51"><path class="cls-2" d="M613.18-722.45a1.57,1.57,0,0,0,.32,0,1.49,1.49,0,0,0,.42-.09l10.9-4.41-10.35-1.77-11,4.48Z"/></clipPath><clipPath id="clip-path-52"><polygon class="cls-2" points="613.92 -722.51 613.92 -701.93 603.32 -704.18 603.32 -724.21 613.92 -722.51"/></clipPath><clipPath id="clip-path-53"><polygon class="cls-2" points="624.82 -726.92 624.82 -706.49 613.92 -701.93 613.92 -722.51 624.82 -726.92"/></clipPath><clipPath id="clip-path-54"><path class="cls-2" d="M639.62-712.68a1.07,1.07,0,0,0,.31,0,1.37,1.37,0,0,0,.43-.1l10.9-4.41-10.36-1.77-11,4.49Z"/></clipPath><clipPath id="clip-path-55"><polygon class="cls-2" points="640.36 -712.74 640.36 -701.71 629.76 -703.96 629.76 -714.43 640.36 -712.74"/></clipPath><clipPath id="clip-path-56"><polygon class="cls-2" points="651.26 -717.15 651.26 -706.27 640.36 -701.71 640.36 -712.74 651.26 -717.15"/></clipPath><clipPath id="clip-path-57"><rect class="cls-1" x="543" y="-754.63" width="173.66" height="84.55"/></clipPath></defs><title>linked pic2</title><rect class="cls-60" x="29.27" y="16.81" width="194.67" height="130.31" transform="translate(253.21 163.93) rotate(-180)"/><rect class="cls-61" x="106.69" y="47.46" width="141.09" height="87.2" transform="translate(354.46 182.11) rotate(-180)"/><path class="cls-62" d="M70.34,69.21a2,2,0,0,0,.51.06,2.15,2.15,0,0,0,.68-.16l17.63-7.18L72.42,59.05l-17.85,7.3Z"/><polygon class="cls-63" points="71.53 69.11 71.53 102.64 54.39 98.97 54.39 66.35 71.53 69.11"/><polygon class="cls-64" points="89.17 61.93 89.17 95.21 71.53 102.64 71.53 69.11 89.17 61.93"/><path class="cls-62" d="M130.63,85.13a2,2,0,0,0,.51.06,2.37,2.37,0,0,0,.69-.15l17.63-7.19L132.71,75l-17.85,7.31Z"/><polygon class="cls-63" points="131.83 85.03 131.83 103 114.69 99.33 114.69 82.28 131.83 85.03"/><polygon class="cls-64" points="149.46 77.86 149.46 95.57 131.83 103 131.83 85.03 149.46 77.86"/><rect class="cls-65" x="37.86" y="26.93" width="163.11" height="6.04" transform="translate(238.83 59.91) rotate(-180)"/><text></text><rect class="cls-66" x="56.43" y="21.87" width="17.37" height="18.2" transform="translate(134.39 50.96) rotate(170.65)"/><rect class="cls-67" x="164.48" y="72.44" width="69.09" height="16.81"/><g class="cls-68"><path d="M177.76,79.17,176,81.43v0l2.74-.36v1.23L176,82v0l1.74,2.17-1.14.65-1.09-2.53h0l-1.18,2.55-1-.65L175,82v0l-2.68.35V81.11l2.66.34v0l-1.7-2.2,1.1-.64,1.13,2.52h0l1.11-2.53Z"/><path d="M185.27,79.17l-1.72,2.26v0l2.73-.36v1.23L183.55,82v0l1.74,2.17-1.14.65-1.09-2.53h0l-1.18,2.55-1-.65L182.54,82v0l-2.68.35V81.11l2.66.34v0l-1.7-2.2,1.1-.64L183,81.09h0l1.1-2.53Z"/><path d="M192.77,79.17l-1.71,2.26v0l2.73-.36v1.23L191.06,82v0l1.73,2.17-1.14.65-1.08-2.53h0l-1.17,2.55-1-.65L190,82v0l-2.68.35V81.11l2.67.34v0l-1.71-2.2,1.11-.64,1.12,2.52h0l1.1-2.53Z"/><path d="M200.28,79.17l-1.72,2.26v0l2.74-.36v1.23L198.56,82v0l1.74,2.17-1.14.65-1.09-2.53h0l-1.18,2.55-1-.65L197.55,82v0l-2.68.35V81.11l2.66.34v0l-1.7-2.2,1.1-.64,1.13,2.52h0l1.11-2.53Z"/><path d="M207.79,79.17l-1.72,2.26v0l2.73-.36v1.23L206.07,82v0l1.74,2.17-1.14.65-1.09-2.53h0l-1.17,2.55-1-.65L205.06,82v0l-2.68.35V81.11l2.66.34v0l-1.7-2.2,1.1-.64,1.12,2.52h0l1.1-2.53Z"/><path d="M215.29,79.17l-1.71,2.26v0l2.73-.36v1.23L213.58,82v0l1.73,2.17-1.14.65-1.08-2.53h0l-1.17,2.55-1-.65L212.56,82v0l-2.68.35V81.11l2.66.34v0l-1.7-2.2,1.11-.64,1.12,2.52h0l1.1-2.53Z"/><path d="M222.8,79.17l-1.72,2.26v0l2.73-.36v1.23L221.08,82v0l1.74,2.17-1.14.65-1.09-2.53h0l-1.18,2.55-1-.65L220.07,82v0l-2.68.35V81.11l2.66.34v0l-1.7-2.2,1.1-.64,1.13,2.52h0l1.11-2.53Z"/></g></svg>