<svg id="Layer_1" data-name="Layer 1" xmlns="http://www.w3.org/2000/svg" xmlns:xlink="http://www.w3.org/1999/xlink" viewBox="0 0 288 180"><defs><style>.cls-1,.cls-2,.cls-3{fill:none;}.cls-2{clip-rule:evenodd;}.cls-3{stroke:#d3cfcf;stroke-linecap:round;stroke-linejoin:round;stroke-width:1.28px;}.cls-3,.cls-62,.cls-63,.cls-64,.cls-65,.cls-67,.cls-68,.cls-69,.cls-70,.cls-72,.cls-75,.cls-76,.cls-77,.cls-78,.cls-83,.cls-86{fill-rule:evenodd;}.cls-4{fill:#42b5a1;}.cls-5{clip-path:url(#clip-path);}.cls-6{clip-path:url(#clip-path-2);}.cls-7{clip-path:url(#clip-path-3);}.cls-8{clip-path:url(#clip-path-4);}.cls-9{clip-path:url(#clip-path-5);}.cls-10{clip-path:url(#clip-path-6);}.cls-11{clip-path:url(#clip-path-7);}.cls-12{clip-path:url(#clip-path-8);}.cls-13{clip-path:url(#clip-path-9);}.cls-14{clip-path:url(#clip-path-10);}.cls-15{clip-path:url(#clip-path-11);}.cls-16{clip-path:url(#clip-path-12);}.cls-17{clip-path:url(#clip-path-13);}.cls-18{clip-path:url(#clip-path-14);}.cls-19{clip-path:url(#clip-path-15);}.cls-20{clip-path:url(#clip-path-16);}.cls-21{clip-path:url(#clip-path-17);}.cls-22{clip-path:url(#clip-path-18);}.cls-23{clip-path:url(#clip-path-19);}.cls-24{clip-path:url(#clip-path-20);}.cls-25{clip-path:url(#clip-path-21);}.cls-26{clip-path:url(#clip-path-22);}.cls-27{clip-path:url(#clip-path-23);}.cls-28{clip-path:url(#clip-path-24);}.cls-29{clip-path:url(#clip-path-25);}.cls-30{clip-path:url(#clip-path-26);}.cls-31{clip-path:url(#clip-path-27);}.cls-32{clip-path:url(#clip-path-28);}.cls-33{clip-path:url(#clip-path-29);}.cls-34{clip-path:url(#clip-path-30);}.cls-35{clip-path:url(#clip-path-31);}.cls-36{clip-path:url(#clip-path-32);}.cls-37{clip-path:url(#clip-path-33);}.cls-38{clip-path:url(#clip-path-34);}.cls-39{clip-path:url(#clip-path-35);}.cls-40{clip-path:url(#clip-path-36);}.cls-41{clip-path:url(#clip-path-37);}.cls-42{clip-path:url(#clip-path-38);}.cls-43{clip-path:url(#clip-path-39);}.cls-44{clip-path:url(#clip-path-40);}.cls-45{clip-path:url(#clip-path-41);}.cls-46{clip-path:url(#clip-path-42);}.cls-47{clip-path:url(#clip-path-43);}.cls-48{clip-path:url(#clip-path-44);}.cls-49{clip-path:url(#clip-path-45);}.cls-50{clip-path:url(#clip-path-46);}.cls-51{clip-path:url(#clip-path-47);}.cls-52{clip-path:url(#clip-path-48);}.cls-53{clip-path:url(#clip-path-49);}.cls-54{clip-path:url(#clip-path-50);}.cls-55{clip-path:url(#clip-path-51);}.cls-56{clip-path:url(#clip-path-52);}.cls-57{clip-path:url(#clip-path-53);}.cls-58{clip-path:url(#clip-path-54);}.cls-59{clip-path:url(#clip-path-55);}.cls-60{clip-path:url(#clip-path-56);}.cls-61{clip-path:url(#clip-path-57);}.cls-62,.cls-74{fill:#fec1bc;}.cls-63{fill:#7e93a3;}.cls-64{fill:#a5b6c5;}.cls-65{fill:#8fa5b5;}.cls-66,.cls-68{fill:#e89f36;}.cls-67{fill:#fdb947;}.cls-69{fill:#376bb4;}.cls-70,.cls-84{fill:#265d9e;}.cls-71{opacity:0.55;}.cls-72,.cls-73{fill:#dda09e;}.cls-75{fill:#b2423d;}.cls-76{fill:#912a2a;}.cls-77,.cls-81{fill:#efc09a;}.cls-78{fill:#bc845e;}.cls-79{fill:#9f3a3e;}.cls-80{fill:#6d332f;}.cls-82{fill:#636566;}.cls-83{fill:#ff624d;}.cls-85{fill:#28435e;}.cls-86{fill:#ddd;}</style><clipPath id="clip-path"><rect class="cls-1" x="458.77" y="-776.44" width="123" height="77"/></clipPath><clipPath id="clip-path-2"><rect class="cls-1" x="449.77" y="-767.44" width="123" height="77"/></clipPath><clipPath id="clip-path-3"><rect class="cls-1" x="456.77" y="-762.44" width="111" height="4"/></clipPath><clipPath id="clip-path-4"><polygon class="cls-1" points="461.77 -755.95 466.02 -751.44 469.77 -755.02 464.63 -759.44 461.77 -755.95"/></clipPath><clipPath id="clip-path-5"><polygon class="cls-1" points="502.31 -777.9 501.77 -771.48 506.77 -771.44 506.68 -778.44 502.31 -777.9"/></clipPath><clipPath id="clip-path-6"><polygon class="cls-1" points="500.77 -734.29 505.85 -730.44 508.77 -734.84 502.84 -738.44 500.77 -734.29"/></clipPath><clipPath id="clip-path-7"><polygon class="cls-1" points="568.77 -762.13 570.94 -756.44 575.77 -758.53 572.75 -764.44 568.77 -762.13"/></clipPath><clipPath id="clip-path-8"><polygon class="cls-1" points="481.77 -705.12 483.94 -699.44 488.77 -701.53 485.75 -707.44 481.77 -705.12"/></clipPath><clipPath id="clip-path-9"><polygon class="cls-1" points="529.3 -748.9 528.77 -742.48 533.77 -742.44 533.67 -749.44 529.3 -748.9"/></clipPath><clipPath id="clip-path-10"><polygon class="cls-1" points="586.3 -708.9 585.77 -702.48 590.77 -702.44 590.67 -709.44 586.3 -708.9"/></clipPath><clipPath id="clip-path-11"><polygon class="cls-1" points="531.3 -690.9 530.77 -684.48 535.77 -684.44 535.67 -691.44 531.3 -690.9"/></clipPath><clipPath id="clip-path-12"><polygon class="cls-2" points="547.55 -686.44 546.95 -680.84 539.77 -673.44 548.86 -677.61 550.77 -685.3 547.55 -686.44"/></clipPath><clipPath id="clip-path-13"><polygon class="cls-2" points="564.77 -687.43 568.85 -685.29 567.73 -677.44 571.77 -686.16 568.1 -690.44 564.77 -687.43"/></clipPath><clipPath id="clip-path-14"><polygon class="cls-2" points="557.31 -710.44 556.77 -701.39 563.88 -685.44 570.3 -690.2 565.41 -701.02 571.77 -708.16 557.31 -710.44"/></clipPath><clipPath id="clip-path-15"><polygon class="cls-2" points="556.57 -710.97 548.74 -699.87 545.77 -685.18 553.41 -682.44 557.61 -698.06 570.77 -711.44 556.57 -710.97"/></clipPath><clipPath id="clip-path-16"><path class="cls-2" d="M564.52-711.44l-10.84,14.73s-2,10.86-1.91,12.18a2.31,2.31,0,0,0,1.94,2.09L557.84-698l12.93-13.33Z"/></clipPath><clipPath id="clip-path-17"><path class="cls-1" d="M561-734.29l-7-3.15-.21,3.91s8.63,5.52,9.48,6.8,3.52-2.08,3.52-2.08S563.46-732.76,561-734.29Z"/></clipPath><clipPath id="clip-path-18"><path class="cls-2" d="M571.22-733.51a1.55,1.55,0,0,0-.9-1.6c-1.06-.47-2-.44-2.43.09s.08,2.76-1.09,3.43a7.25,7.25,0,0,1-2.87,1.33c-1.8.44.15,1.53-.43,1.56a9.26,9.26,0,0,0-3.61,1,16.12,16.12,0,0,0-3.68,3.05,14.3,14.3,0,0,0-2.16,3.14c.13,1.14,4.52,1.67,4.52,1.67a13.31,13.31,0,0,1,1.34-1.26c.33,1.19-6.14,12.68-6.14,12.68s18.81,2.36,19.35,1.94c2-1.51-1.19-10.37-1.13-14.66,0-1.47-.61-7.86-.61-7.86Z"/></clipPath><clipPath id="clip-path-19"><path class="cls-2" d="M570.62-721.13c0-1.47-.75-7.87-.75-7.87l-.24-4.51a1.57,1.57,0,0,0-1-1.59c-1.11-.46-2-.46-2.52.06s.13,2.76-1.08,3.41l-.17.1a1.46,1.46,0,0,1,0,.51l-.79,2.77c.41-.68,2.47,7.08.14,13.69-2.94,8.33,7.49,8.3,7.85,8C574.17-708,570.62-716.84,570.62-721.13Z"/></clipPath><clipPath id="clip-path-20"><path class="cls-2" d="M571.92-735.92c-1.53-1.89-2-2.9-4.06-3.44-.69-.18-2.45-1-2.93-1.06a2,2,0,0,0-2,.84l-.27,1.88a4.72,4.72,0,0,0-1.26,1.18,7.83,7.83,0,0,0-.67,1.74l1.5-.68-.22,1.41-1,.5,3.52,3.27,1-.67a4,4,0,0,0,1.71,3.47c1.55,1.15,2.35,1.77,4.4,1.31,1.67-.37,1.49,1.38,4.37.46s3.57-3.21,1.69-5.63c-1.51-1.95-2-1.31-3.83-2.37C572.4-734.6,573.36-734.15,571.92-735.92Z"/></clipPath><clipPath id="clip-path-21"><path class="cls-2" d="M576.77-731.33c-1.43-1.95-1.91-1.32-3.63-2.38-1.4-.86-.5-.42-1.86-2.2s-1.93-2.9-3.86-3.44c-.66-.18-2.33-1-2.79-1.07a1.89,1.89,0,0,0-1.86.82v.07c.61.25,1.3.56,1.66.66,1.94.55,1.62,2.55,3.07,4.44s1.25.35,2.65,1.21c1.72,1.06.47,2.38,1.91,4.33,1.58,2.16,2.39,1.6,1,3.32a3.08,3.08,0,0,0,2.14-.14C577.9-726.63,578.56-728.92,576.77-731.33Z"/></clipPath><clipPath id="clip-path-22"><path class="cls-2" d="M562.82-739.44a2.18,2.18,0,0,0-1.33.53c-.65.55-.85.81-1.44,1.32a3.51,3.51,0,0,0-1.26,2.57c-.08,1.28.07,2.34,1.3,2.83s1.34.53,1.92,1.54.77,1.3.77,1.3a2.57,2.57,0,0,0,2.7.76c.59-.23.11-.69,0-1.45a4.54,4.54,0,0,1-.08-1,3.19,3.19,0,0,1-1.19-.14,4.53,4.53,0,0,1-1.13-.8,4.32,4.32,0,0,1-1-2.25s.76-.87,0-1.23a.75.75,0,0,0-.62,0,.73.73,0,0,0-.44.42l-.39.28a4.9,4.9,0,0,1,.88-1.9c.58-.59.69-.56,1-1a1.91,1.91,0,0,0,.25-1.28A3.25,3.25,0,0,1,562.82-739.44Z"/></clipPath><clipPath id="clip-path-23"><path class="cls-1" d="M559.77-737.44s-.1,0-.33.31a4.23,4.23,0,0,0-.44.69.45.45,0,0,1-.22-.47C558.89-737.16,559.61-737.41,559.77-737.44Z"/></clipPath><clipPath id="clip-path-24"><path class="cls-2" d="M560.77-733.65s.29-.84.54-.79.51.09.45.33.06.33-.29.59A.54.54,0,0,1,560.77-733.65Z"/></clipPath><clipPath id="clip-path-25"><path class="cls-1" d="M540.92-741a2.24,2.24,0,0,1,2.81,0,38.07,38.07,0,0,0,5.53,2.07l5.51,2.18-.38,3.25a43.53,43.53,0,0,0-4.77-2.89c-1.7-.77-4.61-1.95-5.3-2.31s-.75.11-1.91.13a2.16,2.16,0,0,1-1.61-1s-2.38,1.78-2,.87A10.12,10.12,0,0,1,540.92-741Z"/></clipPath><clipPath id="clip-path-26"><path class="cls-1" d="M557.77-720.48a14.25,14.25,0,0,1-1.72-.38c-.4-.12-1.3-.49-1.3-.49S553.41-720,553-720.1s-2.62-3.9-3.17-4.77,0-1.28-.35-2.14a4.18,4.18,0,0,0-1.74-2.08c-.2,0,.14.39.33.92s.18.74-.14.74-.65-.71-.71-1.22-.23-1.49-.24-1.68-.26-.17-.39.27a5.87,5.87,0,0,0-.3,1.94c0,.36.16.54,0,.46s-.36-1.07-.47-1.1-.09.12-.08.6a2,2,0,0,0,.47,1.23c.33.55.8,1,1.19,1.7s2.29,4.43,2.53,5.11,1.73,3.51,3,3.67S557.28-719.42,557.77-720.48Z"/></clipPath><clipPath id="clip-path-27"><path class="cls-2" d="M571.27-686.44a13.41,13.41,0,0,0-1.56,3.33,10.6,10.6,0,0,1-1.42,3.19l-1.11,2.39s-.87,2.67-.08,2a14.63,14.63,0,0,0,2.62-3c.67-1.07,1-2.4,1.67-3.33a15.56,15.56,0,0,0,1.38-2.77Z"/></clipPath><clipPath id="clip-path-28"><path class="cls-2" d="M571.77-682.09l.69.65s1.19-.93,1.28-1.47a3.29,3.29,0,0,0,0-1.17l-.46-.36Z"/></clipPath><clipPath id="clip-path-29"><path class="cls-2" d="M549.5-678.44a14.62,14.62,0,0,0-3.4,1.67c-.89.77-2.14.76-3.54,1.39L540-674s-2,1.65-.89,1.58a16.24,16.24,0,0,0,4.08-.82c1.24-.44,2.36-1.26,3.5-1.6a17,17,0,0,0,2.9-1.34l.19-.93Z"/></clipPath><clipPath id="clip-path-30"><path class="cls-2" d="M546.77-675.32l0,.88s1.08-.13,1.4-.5a4.61,4.61,0,0,0,.56-1l-.06-.5Z"/></clipPath><clipPath id="clip-path-31"><path class="cls-2" d="M468.66-684.32s-2.13,5.78-1.83,6.32,4.94,3.56,4.94,3.56l-8-.77,1.3-9.23Z"/></clipPath><clipPath id="clip-path-32"><polygon class="cls-2" points="446.77 -687.31 443.04 -683.88 446.15 -676.44 439.77 -683.81 443.54 -689.44 446.77 -687.31"/></clipPath><clipPath id="clip-path-33"><path class="cls-1" d="M473-740.44a3.61,3.61,0,0,1,.63.89c0,.23.19.74,0,.89s-.94.22-.94.22Z"/></clipPath><clipPath id="clip-path-34"><path class="cls-2" d="M469.77-736.24a9.24,9.24,0,0,1-1.2,2.52,18.39,18.39,0,0,0-1.83,2.28s-4-.8-4-1.7,2.31-4.57,2.94-5.2S469.77-736.24,469.77-736.24Z"/></clipPath><clipPath id="clip-path-35"><path class="cls-2" d="M473.77-741.58a11.89,11.89,0,0,1-.31,3.08c-.34.8,0,2-1,2.89a3.39,3.39,0,0,1-3.4,1,3.11,3.11,0,0,1-2.43-2.1c-.41-1-2.43-2.74-1.62-4.94s4.08-4.3,5.71-3.74A4.23,4.23,0,0,1,473.77-741.58Z"/></clipPath><clipPath id="clip-path-36"><path class="cls-1" d="M472.77-743.43a5.16,5.16,0,0,1-1.31,1.74c-.83.68-.83,2.82-1.88,2.82-.23,0-.64.11-.76,0-.34-.47-.79-.68-1.11-.34a2.12,2.12,0,0,0-.32,1.41,5,5,0,0,0,.32,1c.32,1.12-3.15-.34-3.15-.34a5.23,5.23,0,0,1-.79-3.14,27.58,27.58,0,0,1,1.27-6.1l6.29,1.32Z"/></clipPath><clipPath id="clip-path-37"><path class="cls-1" d="M468.77-739.41a7.6,7.6,0,0,1-.77-.93c-1.21-1.78-2-5.94-2-5.94l-.79-.16a24.78,24.78,0,0,0-1.41,6.05,5.17,5.17,0,0,0,.89,3.21s3.83,1.43,3.48.31a4.71,4.71,0,0,1-.33-1,2,2,0,0,1,.33-1.4A.54.54,0,0,1,468.77-739.41Z"/></clipPath><clipPath id="clip-path-38"><path class="cls-1" d="M486.77-741.16l1.26-2.13s.07-1.29.21-2.25.26-1.71.5-1.71.15,1.68.15,1.68.32-1.64,1.32-1.81a6.78,6.78,0,0,1,1.8,0,4.35,4.35,0,0,1,1.76.91c-.2.59-2.58-.44-3,.66-.23.61-.33,1.51,0,1.82.71.59,1.78-1.7,1.95-1.67s.63,1.09-.17,2.32c-.43.64-.71,1.26-1.53,1.46a2.19,2.19,0,0,0-1.63,1.11,11.22,11.22,0,0,1-.92,1.33Z"/></clipPath><clipPath id="clip-path-39"><path class="cls-1" d="M451.77-716.73l-1.37,2.11s-.07,1.28-.22,2.23-.27,1.7-.54,1.7-.19-2.76-.19-2.76a7.12,7.12,0,0,1-1.69,2.33,2.64,2.64,0,0,1-1.72.68c-.42,0-1.71.17-1.12-.62.38-.49.65-1,1.86-2.64.39-.52,1.72-2.76,2.14-3.42a12.71,12.71,0,0,1,1-1.32Z"/></clipPath><clipPath id="clip-path-40"><polygon class="cls-1" points="467.31 -712.74 470.77 -696.83 468.6 -679.44 464.26 -679.96 463.93 -695.86 461.21 -702.29 456.45 -694.38 447.12 -686.87 442.77 -688.72 452.33 -698.67 457.94 -713.44 467.31 -712.74"/></clipPath><clipPath id="clip-path-41"><path class="cls-2" d="M486.51-742.44s-2.83,5.47-7,7.53c-3.87,1.89-5.32,2.28-7.89,1.95a35.06,35.06,0,0,1-3.5-.6l-3.5-.08s-5.47-1-8.39.41-5.51,6.87-5.51,6.87l-2.92,9.15,3.92.45,3.05-6.73.88-3.75,1.29,14.47,10.85.33L471.55-726a17.84,17.84,0,0,0,10.08-3.87c6.26-4.84,8.14-9.36,8.14-9.36Z"/></clipPath><clipPath id="clip-path-42"><path class="cls-1" d="M464-677.44s.09,1,1.62,1.3c1.8.3,2.38.15,2.67-.23s-.35-.67,0-.64a20,20,0,0,1,3.84,1.53c1.32.77,1.68,1.43,1.62,1.91s-7.2-.59-7.2-.59-2.73-.06-2.79-.82A13.58,13.58,0,0,1,464-677.44Z"/></clipPath><clipPath id="clip-path-43"><path class="cls-1" d="M464.77-678.43l-.27,1-.48-.26a.55.55,0,0,1-.25-.43c0-.13.18-.25.44-.29A2.61,2.61,0,0,1,464.77-678.43Z"/></clipPath><clipPath id="clip-path-44"><path class="cls-2" d="M462.92-675.44l-.15,1.33a4.12,4.12,0,0,0,2,1.06c1.12.19,6.7.61,7.31.61h.61l.13-1.2a48.71,48.71,0,0,1-5-.34,21.68,21.68,0,0,1-4-.8C463.31-675.07,462.9-675.34,462.92-675.44Z"/></clipPath><clipPath id="clip-path-45"><path class="cls-1" d="M440.31-685.44a1.61,1.61,0,0,0,.71,1.91c1.39,1.1,1.93,1.22,2.39,1s0-.76.31-.58a17.12,17.12,0,0,1,2.47,3.16c.72,1.3.68,2,.37,2.46s-5.8-3.86-5.8-3.86-2.32-1.32-1.95-2A15.24,15.24,0,0,1,440.31-685.44Z"/></clipPath><clipPath id="clip-path-46"><path class="cls-1" d="M440.77-685.3l-.89.86-.11-.37a.68.68,0,0,1,.16-.46.54.54,0,0,1,.49-.16A1,1,0,0,1,440.77-685.3Z"/></clipPath><clipPath id="clip-path-47"><path class="cls-2" d="M438.48-683.44l-.71,1a4,4,0,0,0,1.15,1.76c.81.68,5.23,3.69,5.73,4l.5.29.62-.9S443-679,441.82-680a29,29,0,0,1-2.93-2.52C438.59-682.94,438.41-683.37,438.48-683.44Z"/></clipPath><clipPath id="clip-path-48"><path class="cls-1" d="M469.76-738.7s-.35-1.14-.82-.59.19,1.29.19,1.29l.26.56A1.75,1.75,0,0,0,469.76-738.7Z"/></clipPath><clipPath id="clip-path-49"><rect class="cls-1" x="182.77" y="-774.44" width="120" height="81"/></clipPath><clipPath id="clip-path-50"><rect class="cls-1" x="233.77" y="-756.44" width="92" height="54"/></clipPath><clipPath id="clip-path-51"><path class="cls-2" d="M222-742.81a1.57,1.57,0,0,0,.32,0,1.37,1.37,0,0,0,.43-.1l10.9-4.4L223.24-749l-11,4.48Z"/></clipPath><clipPath id="clip-path-52"><polygon class="cls-2" points="222.69 -742.88 222.69 -722.29 212.1 -724.54 212.1 -744.57 222.69 -742.88"/></clipPath><clipPath id="clip-path-53"><polygon class="cls-2" points="233.6 -747.28 233.6 -726.85 222.7 -722.29 222.7 -742.88 233.6 -747.28"/></clipPath><clipPath id="clip-path-54"><path class="cls-2" d="M248.39-733a1.57,1.57,0,0,0,.32,0,1.49,1.49,0,0,0,.42-.09l10.9-4.41-10.35-1.77-11,4.49Z"/></clipPath><clipPath id="clip-path-55"><polygon class="cls-2" points="249.13 -733.1 249.13 -722.07 238.53 -724.32 238.53 -734.79 249.13 -733.1"/></clipPath><clipPath id="clip-path-56"><polygon class="cls-2" points="260.03 -737.51 260.03 -726.63 249.13 -722.07 249.13 -733.1 260.03 -737.51"/></clipPath><clipPath id="clip-path-57"><rect class="cls-1" x="151.77" y="-774.99" width="173.66" height="84.55"/></clipPath></defs><title>linked pic2</title><path class="cls-3" d="M225.79,50.48s-37.58-6.16-27,32.49c6.57,24.07-28.65,44.37-46.95,28.71-33.76-28.91,36.44-56.62,29.38-89.28-5.7-26.37-42.32-28.82-56.54-.73C110.3,50,128,58.26,105.11,72.91S63.24,55.66,63.24,55.66"/><circle class="cls-4" cx="125.11" cy="22.31" r="3.68"/><polygon class="cls-62" points="220.16 148.64 218.82 161.23 202.5 177.85 223.14 168.47 227.48 151.2 220.16 148.64"/><polygon class="cls-62" points="257.42 147.83 265.82 152.47 263.51 169.46 271.84 150.58 264.28 141.33 257.42 147.83"/><polygon class="cls-63" points="240.02 101.12 238.84 120.87 254.43 152.67 268.53 142.28 257.8 121.66 271.74 106.08 240.02 101.12"/><polygon class="cls-64" points="239.72 99.55 222.96 123.63 216.62 152.5 232.95 158.44 241.92 127.53 270.06 98.51 239.72 99.55"/><path class="cls-65" d="M256.49,98.32l-23.61,32.06s-4.28,20.62-4.15,23.5c.17,3.9,4.22,4.56,4.22,4.56l9-30.9,28.14-29Z"/><path class="cls-66" d="M249.39,49.7l-15.5-7-.46,8.68s19.11,12.26,21,15.1,7.78-4.63,7.78-4.63S254.89,53.08,249.39,49.7Z"/><path class="cls-67" d="M269.38,50.63a3.29,3.29,0,0,0-1.91-3.43c-2.27-1-4.17-.92-5.2.2s.18,5.93-2.33,7.37-2.26,1.9-6.13,2.85.31,3.29-.94,3.35a19.44,19.44,0,0,0-7.71,2.14c-.79.36-3.7,2.22-7.86,6.55-1.3,1.35-4.69,6.11-4.62,6.74.27,2.44,9.66,3.57,9.66,3.57a30,30,0,0,1,2.86-2.7c.71,2.55-13.13,27.23-13.13,27.23s40.22,5.06,41.38,4.17c4.23-3.24-2.55-22.27-2.41-31.49,0-3.14-1.3-16.87-1.3-16.87Z"/><path class="cls-68" d="M270.08,77.23c0-3.18-1.63-17.06-1.63-17.06l-.52-9.77a3.38,3.38,0,0,0-2.07-3.49c-2.42-1-4.43-1-5.49.12s.28,6-2.35,7.4l-.38.21a3.47,3.47,0,0,1,.06,1.1l-1.72,6c.89-1.46,5.4,15.34.31,29.66-6.41,18.06,16.32,18,17.12,17.44C277.84,105.65,270.08,86.53,270.08,77.23Z"/><path class="cls-69" d="M271.06,45.93c-3.24-4.13-4.3-6.31-8.63-7.49-1.46-.4-5.2-2.24-6.23-2.31A4.26,4.26,0,0,0,252,37.94l-.57,4.12a9.7,9.7,0,0,0-2.67,2.57,16.44,16.44,0,0,0-1.43,3.77l3.15-1.47L250.06,50l-2.12,1.09,7.49,7.12,2.06-1.46a8.8,8.8,0,0,0,3.62,7.56c3.31,2.5,5,3.85,9.36,2.86,3.54-.81,3.16,3,9.28,1s7.58-7,3.59-12.26c-3.2-4.25-4.28-2.88-8.12-5.19C272.09,48.84,274.11,49.81,271.06,45.93Z"/><path class="cls-70" d="M283.36,55.9c-3.2-4.25-4.28-2.87-8.12-5.18-3.12-1.87-1.11-.9-4.16-4.79-3.23-4.12-4.3-6.3-8.63-7.48-1.46-.4-5.2-2.24-6.23-2.31A4.24,4.24,0,0,0,252.07,38l0,.14c1.36.57,2.89,1.24,3.7,1.46,4.33,1.18,3.63,5.52,6.87,9.65,3.05,3.88,2.8.75,5.92,2.63,3.84,2.31,1.06,5.18,4.27,9.43,3.53,4.69,5.34,3.47,2.16,7.22,1,.36,2.42.47,4.8-.31C285.88,66.18,287.35,61.19,283.36,55.9Z"/><path class="cls-62" d="M252,37.94a4.79,4.79,0,0,0-2.91,1.2c-1.4,1.21-1.84,1.8-3.12,2.93a8,8,0,0,0-2.76,5.74c-.17,2.85.16,5.22,2.84,6.3s2.91,1.2,4.18,3.46,1.67,2.9,1.67,2.9,2.55,3,5.89,1.68c1.29-.51.25-1.54,0-3.22a10.38,10.38,0,0,1-.19-2.19,6.21,6.21,0,0,1-2.58-.3,9.57,9.57,0,0,1-2.47-1.79c-1.61-1.32-2.11-5-2.11-5s1.66-1.95,0-2.76a1.64,1.64,0,0,0-2.3.85l-.85.62s.66-2.93,1.91-4.23,1.5-1.24,2.19-2.11a4.34,4.34,0,0,0,.55-2.87A10,10,0,0,1,252,37.94Z"/><g class="cls-71"><path class="cls-72" d="M258.13,59.76a11.56,11.56,0,0,1-.53-3,6.17,6.17,0,0,1-4.07-1.29c-.11-.08-1.49-1.48-1.6-1.58a8.74,8.74,0,0,1-1.75.63,25.35,25.35,0,0,1-3.39-.1c.34.26,2,.18,3.57,3.18A31.36,31.36,0,0,0,252,60.49a4.64,4.64,0,0,0,5.35,1.79C258.67,61.82,258.71,61.69,258.13,59.76Z"/></g><path class="cls-73" d="M245.21,42.87s-.23.05-.73,1a19.4,19.4,0,0,0-1,2.24,1.85,1.85,0,0,1-.49-1.53C243.24,43.77,244.85,42.92,245.21,42.87Z"/><path class="cls-72" d="M248.53,48.63s.63-1.22,1.18-1.15,1.13.13,1,.49.14.47-.64.86A1.61,1.61,0,0,1,248.53,48.63Z"/><path class="cls-74" d="M204.84,33.86s2.28-2.29,6,.11c2.95,1.89,10.29,3.9,11.83,4.54s11.8,4.77,11.8,4.77l-.82,7.12a93.34,93.34,0,0,0-10.21-6.34c-3.63-1.68-9.85-4.27-11.33-5.06s-1.6.26-4.09.29c-2.13,0-3.44-2.16-3.44-2.16s-5.09,3.9-4.26,1.9S204.84,33.86,204.84,33.86Z"/><path class="cls-74" d="M240.14,79.5a26.09,26.09,0,0,1-3.65-.83c-.83-.24-2.75-1.06-2.75-1.06s-2.83,3-3.63,2.74-5.54-8.55-6.72-10.46,0-2.8-.73-4.7c-1-2.61-3.26-4.53-3.69-4.55s.29.84.69,2,.39,1.64-.3,1.65-1.36-1.58-1.5-2.68-.48-3.28-.5-3.68-.55-.39-.84.59a13.66,13.66,0,0,0-.62,4.26c.06.78.33,1.18,0,1s-.76-2.35-1-2.41-.2.25-.18,1.31a4.5,4.5,0,0,0,1,2.68c.71,1.23,1.71,2.2,2.52,3.73s4.86,9.73,5.36,11.23,3.68,7.7,6.43,8.06S239.12,81.85,240.14,79.5Z"/><path class="cls-75" d="M271.42,149.26s-3,4.87-3.38,7.39-1.62,4.15-3.09,7.1l-2.39,5.3s-1.9,5.92-.17,4.38a33.17,33.17,0,0,0,5.67-6.75c1.46-2.39,2.22-5.34,3.61-7.4a36,36,0,0,0,3-6.15Z"/><path class="cls-76" d="M272.2,157.94l1.16,1.33s2-1.91,2.16-3a8.65,8.65,0,0,0-.09-2.41l-.77-.74Z"/><path class="cls-75" d="M223.56,166.2s-5.33,2-7.21,3.73-4.51,1.73-7.48,3.14l-5.44,3.06s-4.19,3.68-1.88,3.53a33,33,0,0,0,8.63-1.82c2.62-1,5-2.83,7.4-3.6a36.51,36.51,0,0,0,6.15-3l.39-2.1Z"/><path class="cls-76" d="M218.82,173.51l.1,1.76s2.75-.28,3.54-1a8.26,8.26,0,0,0,1.42-1.94l-.15-1.06Z"/><path class="cls-77" d="M67.4,153.63s-4.37,11-3.75,12.23,10.12,8,10.12,8l-16.39-1.74L60,153.38Z"/><polygon class="cls-77" points="22.81 145.02 14.16 152.19 21.38 167.72 6.59 152.34 15.33 140.58 22.81 145.02"/><path class="cls-73" d="M76.79,36.12a9.44,9.44,0,0,1,1.36,2.26c.07.6.39,1.9.09,2.28s-2,.56-2,.56Z"/><path class="cls-78" d="M70.08,44.07s-1.5,5.06-2.44,5.81-3.75,5.25-3.75,5.25-8.1-1.85-8.1-3.91,4.72-10.53,6-12S70.08,44.07,70.08,44.07Z"/><path class="cls-77" d="M77.79,33.12s.07,4.8-.63,6.47-.06,4.23-2.16,6-4,3-7,2.18a6.49,6.49,0,0,1-5-4.42c-.84-2.09-5-5.72-3.35-10.33S68,24.12,71.4,25.23A8.8,8.8,0,0,1,77.79,33.12Z"/><path class="cls-79" d="M78.48,29.06a11.49,11.49,0,0,1-3,3.71c-1.92,1.44-1.92,6-4.32,6-.53,0-1.48.23-1.75-.12-.79-1-1.81-1.45-2.56-.7a4.18,4.18,0,0,0-.72,3,10.21,10.21,0,0,0,.72,2.1c.75,2.38-7.22-.72-7.22-.72s-1.82-2.08-1.82-6.7,2.93-13,2.93-13l14.43,2.82Z"/><path class="cls-80" d="M68.14,37.68a16.33,16.33,0,0,1-1.59-2c-2.5-3.8-4.2-12.69-4.2-12.69l-1.65-.33s-2.92,8.31-2.92,12.93,1.85,6.83,1.85,6.83,7.93,3.07,7.21.69a10.76,10.76,0,0,1-.69-2.1,4.38,4.38,0,0,1,.69-3A1.1,1.1,0,0,1,68.14,37.68Z"/><path class="cls-81" d="M107.64,33.94l2.94-4.38s.16-2.63.49-4.6.59-3.51,1.16-3.51.35,3.44.35,3.44.75-3.36,3.08-3.7a16.87,16.87,0,0,1,4.19,0c.9.07,4.2,1.56,4.09,1.85-.46,1.23-6-.89-7,1.37-.53,1.25-.78,3.1,0,3.71,1.65,1.23,4.12-3.49,4.53-3.41s1.47,2.23-.4,4.77c-1,1.3-1.66,2.59-3.56,3a5,5,0,0,0-3.79,2.27,27.21,27.21,0,0,1-2.14,2.73Z"/><path class="cls-81" d="M30.06,85.91l-2.94,4.37s-.16,2.64-.49,4.61-.58,3.51-1.16,3.51-.4-5.71-.4-5.71a14.79,14.79,0,0,1-3.65,4.82,5.9,5.9,0,0,1-3.7,1.41c-.91-.08-3.7.33-2.41-1.29.81-1,1.4-2.13,4-5.44.83-1.07,3.7-5.7,4.61-7.07a27.9,27.9,0,0,1,2.15-2.73Z"/><polygon class="cls-82" points="63.17 94.59 70.59 129.61 65.94 162.85 56.63 161.7 55.91 131.73 50.08 117.58 39.85 131.98 21.82 146.5 12.5 142.44 29 125.55 43.05 88.06 63.17 94.59"/><path class="cls-83" d="M106.55,31s-6.22,12-15.44,16.51c-8.47,4.14-11.66,5-17.29,4.27a69.18,69.18,0,0,1-7.68-1.31l-7.68-.18s-11-2.28-17.4.91S28,66.23,28,66.23L21.56,86.29l8.6,1,7.69-14.77,2.94-8.22L41.64,96l23.8.72,8.28-29.84s11,.08,22.12-8.5c13.72-10.55,17.85-20.47,17.85-20.47Z"/><path class="cls-84" d="M57,166.67s.2,2.37,3.43,3c3.78.7,5,.35,5.61-.54s-.73-1.53,0-1.47c1.38.13,6.77,2.71,8.1,3.55,2.79,1.76,3.54,3.28,3.42,4.41s-15.17-1.38-15.17-1.38-5.76-.12-5.89-1.88A35.65,35.65,0,0,1,57,166.67Z"/><path class="cls-85" d="M58.19,165.93l-.32,2.46s-.37-.4-.57-.65a2,2,0,0,1-.3-1.07.78.78,0,0,1,.52-.73A1.51,1.51,0,0,1,58.19,165.93Z"/><path class="cls-86" d="M56.35,171.94,56,174.61a9.26,9.26,0,0,0,4.2,2.12c2.35.38,14.41,1.26,15.72,1.26h1.31l.27-2.41s-7.36-.14-10.74-.68-7.53-1-8.56-1.58S56.3,172.16,56.35,171.94Z"/><path class="cls-84" d="M7.39,149.25s-1,2.16,1.53,4.26c2.95,2.46,4.16,2.74,5.16,2.28.84-.39.11-1.69.68-1.29,1.14.78,4.57,5.68,5.31,7.06,1.57,2.91,1.48,4.6.81,5.52s-12.53-8.65-12.53-8.65-5-2.94-4.2-4.53A34.61,34.61,0,0,1,7.39,149.25Z"/><path class="cls-85" d="M8.79,149.18l-1.48,2s-.13-.54-.18-.85a1.89,1.89,0,0,1,.26-1.07.79.79,0,0,1,.81-.39A1.47,1.47,0,0,1,8.79,149.18Z"/><path class="cls-86" d="M4.24,153.51l-1.6,2.16a9.08,9.08,0,0,0,2.62,3.91c1.85,1.49,11.93,8.19,13.07,8.83l1.14.64,1.41-2s-6.34-3.73-9-5.86-6-4.61-6.68-5.59S4.08,153.68,4.24,153.51Z"/><path class="cls-73" d="M69.12,39.74s-.67-1.92-1.56-1,.36,2.18.36,2.18l.49,1A2.74,2.74,0,0,0,69.12,39.74Z"/><circle class="cls-4" cx="224.13" cy="50.22" r="4.24"/><circle class="cls-4" cx="88.51" cy="75.01" r="4.57"/><circle class="cls-4" cx="180.16" cy="32.33" r="3.68"/></svg>