<?xml version="1.0" encoding="UTF-8" standalone="no"?>
<svg width="144px" height="19px" viewBox="0 0 144 19" version="1.1" xmlns="http://www.w3.org/2000/svg" xmlns:xlink="http://www.w3.org/1999/xlink">
    <!-- Generator: Sketch 45 (43475) - http://www.bohemiancoding.com/sketch -->
    <title>Hyrogen Logo</title>
    <desc>Created with Sketch.</desc>
    <defs>
        <radialGradient cx="26.2484899%" cy="80.9190933%" fx="26.2484899%" fy="80.9190933%" r="77.6373278%" gradientTransform="translate(0.262485,0.809191),scale(1.000000,0.962729),rotate(-51.470329),scale(1.000000,1.022523),translate(-0.262485,-0.809191)" id="radialGradient-1">
            <stop stop-color="#FFFFFF" stop-opacity="0.4" offset="0%"></stop>
            <stop stop-color="#FFFFFF" stop-opacity="0.601682079" offset="42.4647963%"></stop>
            <stop stop-color="#FFFFFF" offset="100%"></stop>
        </radialGradient>
    </defs>
    <g id="Page-1" stroke="none" stroke-width="1" fill="none" fill-rule="evenodd">
        <g id="Desktop-HD" transform="translate(-199.000000, -60.000000)">
            <g id="Hyrogen-Logo" transform="translate(200.000000, 60.000000)">
                <g id="O-Symbol" transform="translate(70.880912, 0.000000)">
                    <path d="M11.6949571,0.373861171 C10.8858528,0.130457478 10.0305557,0 9.14592419,0 C4.09476974,0 0,4.25329488 0,9.5 C0,14.7467051 4.09476974,19 9.14592419,19 C14.1970786,19 18.2918484,14.7467051 18.2918484,9.5 C18.2918484,8.64229377 18.1824192,7.81113558 17.9772715,7.020767 C17.2440425,8.18807179 16.0318371,9.00119292 14.6303585,9.15921172 C14.637242,9.27625152 14.6407342,9.3942432 14.6407342,9.5130821 C14.6407342,12.6693032 12.1774743,15.2279259 9.13888917,15.2279259 C6.10030407,15.2279259 3.63704415,12.6693032 3.63704415,9.5130821 C3.63704415,6.35686105 6.10030407,3.79823835 9.13888917,3.79823835 C9.28539255,3.79823835 9.43055852,3.80418619 9.57417548,3.81586206 C9.75028743,2.36439717 10.5544282,1.11608644 11.6949571,0.373861171 Z" id="Combined-Shape" fill="url(#radialGradient-1)"></path>
                    <ellipse id="Oval-13" fill="#FFFFFF" cx="14.1801967" cy="4.42190362" rx="3.57262664" ry="3.7109375"></ellipse>
                </g>
                <g id="Text" transform="translate(0.000000, 0.890625)" stroke="#FFFFFF" stroke-width="0.5" fill="#FFFFFF">
                    <path d="M3.12143347,0.258646839 L3.12143347,7.24885821 L11.436071,7.24885821 L11.436071,0.258646839 L14.5325567,0.258646839 L14.5325567,16.8663429 L11.436071,16.8663429 L11.436071,9.8523553 L3.12143347,9.8523553 L3.12143347,16.8663429 L0.0249477749,16.8663429 L0.0249477749,0.258646839 L3.12143347,0.258646839 Z M21.494243,0.258646839 L25.3705843,5.81039634 L29.2927996,0.258646839 L32.974177,0.258646839 L26.9188272,8.63976761 L26.9188272,16.8663429 L23.8223415,16.8663429 L23.8223415,8.61599138 L17.7325863,0.258646839 L21.494243,0.258646839 Z M42.8947274,0.258646839 C44.5614861,0.258646839 46.0447261,0.611324044 47.3444921,1.31668904 C48.644258,2.02205403 49.6534729,3.01272033 50.372167,4.28871768 C51.0908611,5.56471502 51.4502027,6.99919983 51.4502027,8.59221515 C51.4502027,10.2169323 51.0889497,11.6573611 50.3664327,12.9135448 C49.6439158,14.1697285 48.6174984,15.1425628 47.2871497,15.8320769 C45.9568011,16.521591 44.4315104,16.8663429 42.711232,16.8663429 L36.1856751,16.8663429 L36.1856751,0.258646839 L42.8947274,0.258646839 Z M42.5736104,14.3579507 C44.2862431,14.3579507 45.6605339,13.8249722 46.6965238,12.7589993 C47.7325137,11.6930264 48.2505008,10.2961869 48.2505008,8.56843892 C48.2505008,6.77728737 47.7286909,5.36261589 46.6850553,4.32438202 C45.6414197,3.28614816 44.2365467,2.76703901 42.4703942,2.76703901 L39.2821608,2.76703901 L39.2821608,14.3579507 L42.5736104,14.3579507 Z M61.4510324,0.258646839 C62.9572318,0.258646839 64.1843453,0.690577349 65.1324098,1.55445133 C66.0804744,2.41832531 66.5544996,3.54372223 66.5544996,4.93067586 C66.5544996,5.87380434 66.3193984,6.69605737 65.8491889,7.39745964 C65.3789795,8.0988619 64.6813215,8.6516537 63.756194,9.05585162 C64.2684547,9.3411678 64.7233659,9.72950899 65.1209414,10.2208868 C65.5185168,10.7122647 66.0116559,11.5404617 66.6003734,12.7055028 C67.5790207,14.7185669 68.3053496,16.1054998 68.7793819,16.8663429 L65.3273738,16.8663429 C65.0903576,16.5017722 64.7692438,15.9192604 64.3640227,15.1187901 C63.4771236,13.3514148 62.8272503,12.1606339 62.4143835,11.5464116 C62.0015167,10.9321893 61.6039472,10.4962961 61.2216631,10.238719 C60.839379,9.98114192 60.3997589,9.8523553 59.9027896,9.8523553 L58.7788799,9.8523553 L58.7788799,16.8663429 L55.6823943,16.8663429 L55.6823943,0.258646839 L61.4510324,0.258646839 Z M60.751456,7.34396312 C61.5618983,7.34396312 62.1983918,7.13394187 62.6609555,6.71389305 C63.1235193,6.29384424 63.3547977,5.71925778 63.3547977,4.99011644 C63.3547977,4.2292733 63.1254307,3.66063084 62.6666898,3.284172 C62.2079488,2.90771315 61.5542528,2.71948655 60.7055822,2.71948655 L58.7788799,2.71948655 L58.7788799,7.34396312 L60.751456,7.34396312 Z M101.144047,0.0446607766 C103.116633,0.0446607766 105.073898,0.500367278 107.015901,1.41179395 L107.015901,4.34815825 C105.073898,3.32577529 103.162506,2.81459147 101.281669,2.81459147 C100.111879,2.81459147 99.0720822,3.05631405 98.1622461,3.53976646 C97.2524099,4.02321887 96.5471064,4.71866662 96.0463142,5.62613057 C95.545522,6.53359452 95.2951297,7.54605548 95.2951297,8.66354384 C95.2951297,10.35959 95.8398764,11.7247282 96.929386,12.7589993 C98.0188957,13.7932704 99.454351,14.3103983 101.235795,14.3103983 C101.725118,14.3103983 102.193409,14.2668089 102.640682,14.179629 C103.087954,14.0924491 103.621233,13.9260171 104.240533,13.6803282 L104.240533,10.9222856 L101.591317,10.9222856 L101.591317,8.41389343 L107.337019,8.41389343 L107.337019,15.2614474 C106.549513,15.8320798 105.603374,16.2778796 104.498573,16.5988603 C103.393772,16.919841 102.245026,17.080329 101.052299,17.080329 C99.3626037,17.080329 97.8315789,16.7197264 96.459179,15.9985105 C95.0867791,15.2772946 94.0163996,14.266815 93.2480086,12.9670413 C92.4796176,11.6672676 92.0954278,10.2169321 92.0954278,8.61599138 C92.0954278,6.99127427 92.4834404,5.52112547 93.2594771,4.20550088 C94.0355138,2.88987629 95.1173616,1.86750866 96.5050528,1.13836732 C97.8927441,0.409225978 99.4390601,0.0446607766 101.144047,0.0446607766 Z M122.338099,0.258646839 L122.338099,2.76703901 L115.07856,2.76703901 L115.07856,7.12997706 L122.028451,7.12997706 L122.028451,9.63836923 L115.07856,9.63836923 L115.07856,14.3579507 L122.498658,14.3579507 L122.498658,16.8663429 L111.982075,16.8663429 L111.982075,0.258646839 L122.338099,0.258646839 Z M129.448876,0.258646839 L138.967702,11.8495585 L138.967702,0.258646839 L141.995377,0.258646839 L141.995377,16.8663429 L139.334693,16.8663429 L129.758524,5.08522135 L129.758524,16.8663429 L126.730849,16.8663429 L126.730849,0.258646839 L129.448876,0.258646839 Z" id="HYDROGEN"></path>
                </g>
            </g>
        </g>
    </g>
</svg>