<?xml version="1.0" encoding="utf-8"?>
<!-- Generator: Adobe Illustrator 23.0.1, SVG Export Plug-In . SVG Version: 6.00 Build 0)  -->
<svg version="1.1" id="Layer_1" xmlns="http://www.w3.org/2000/svg" xmlns:xlink="http://www.w3.org/1999/xlink" x="0px" y="0px"
	 viewBox="0 0 396.5 180.5" style="enable-background:new 0 0 396.5 180.5;" xml:space="preserve">
<style type="text/css">
	.st0{fill:url(#SVGID_1_);}
	.st1{fill:#4A4F54;}
</style>
<title>near_logo</title>
<g>
	
		<linearGradient id="SVGID_1_" gradientUnits="userSpaceOnUse" x1="3.6062" y1="41.1037" x2="104.3844" y2="141.8819" gradientTransform="matrix(1 0 0 -1 0 182)">
		<stop  offset="0.21" style="stop-color:#4A4F54"/>
		<stop  offset="0.42" style="stop-color:#4A4F54;stop-opacity:0"/>
		<stop  offset="0.59" style="stop-color:#4A4F54;stop-opacity:0"/>
		<stop  offset="0.81" style="stop-color:#4A4F54"/>
	</linearGradient>
	<path class="st0" d="M12.3,144.5c3.6,0,7-1.6,9.4-4.3l0,0l84.4-97.9c-2.3-3.6-6.2-5.8-10.4-5.8l0,0c-3.6,0-7,1.5-9.3,4.2L1.5,138.1
		C3.7,142,7.8,144.5,12.3,144.5z"/>
	<path class="st1" d="M12.3,144.5c2,0,3.9-0.5,5.7-1.4V61.4l65.6,78.7c2.3,2.8,5.8,4.4,9.5,4.4h2.6c6.8,0,12.3-5.5,12.3-12.3V48.8
		c0-6.8-5.5-12.3-12.3-12.3l0,0c-2,0-3.9,0.5-5.6,1.3v81.8L24.4,40.9c-2.3-2.8-5.8-4.4-9.5-4.4h-2.6C5.5,36.5,0,42,0,48.8v83.3
		C0,139,5.5,144.5,12.3,144.5z"/>
	<path class="st1" d="M189.2,64.2v52.5c0,0.4-0.3,0.7-0.8,0.8H183c-2.5,0-4.9-1.3-6.3-3.4l-24.8-38.3l0.9,19.1v21.8
		c0,0.4-0.3,0.7-0.8,0.8h-7.2c-0.4,0-0.7-0.3-0.8-0.8V64.2c0-0.4,0.3-0.7,0.8-0.8h5.4c2.5,0,4.9,1.3,6.3,3.4l24.8,38.2l-0.8-19.1
		V64.2c0-0.4,0.3-0.8,0.8-0.8h7.2C188.9,63.5,189.2,63.9,189.2,64.2z"/>
	<path class="st1" d="M263,117.5h-7.6c-0.4,0-0.7-0.3-0.7-0.8c0-0.1,0-0.2,0-0.2l20.2-52.3c0.2-0.4,0.6-0.7,1-0.7h9.6
		c0.5,0,0.9,0.3,1,0.7l20.2,52.3c0.1,0.4-0.1,0.8-0.5,1c-0.1,0-0.2,0-0.2,0h-7.6c-0.3,0-0.6-0.2-0.7-0.5l-16.4-43
		c-0.1-0.4-0.6-0.6-1-0.4c-0.2,0.1-0.4,0.2-0.4,0.4l-16.3,43C263.6,117.3,263.3,117.5,263,117.5z"/>
	<path class="st1" d="M359.8,116.3l-15.2-19.4c8.6-1.6,13.6-7.4,13.6-16.3c0-10.2-6.6-17.1-18.4-17.1h-21.2c-0.6,0-1.1,0.5-1.1,1.1
		l0,0c0,4,3.2,7.2,7.2,7.2c0,0,0,0,0,0H339c7.1,0,10.5,3.6,10.5,8.9s-3.3,9-10.5,9h-20.3c-0.6,0-1.1,0.5-1.1,1.1v26
		c0,0.4,0.3,0.8,0.8,0.8l0,0h7.2c0.4,0,0.7-0.3,0.8-0.8V97.4h8.3l13.2,17.2c1.4,1.9,3.7,3,6,2.9h5.5c0.4,0,0.7-0.4,0.7-0.8
		C360,116.6,359.9,116.4,359.8,116.3z"/>
	<path class="st1" d="M240.2,63.5h-33.5c-0.6,0-1,0.4-1,1l0,0c0,4,3.3,7.3,7.3,7.3l0,0h27.2c0.4,0,0.7-0.3,0.8-0.7c0,0,0,0,0,0v-6.8
		C240.9,63.8,240.6,63.5,240.2,63.5z M240.2,109.2h-25c-0.4,0-0.7-0.3-0.8-0.8V94.9c0-0.4,0.3-0.8,0.8-0.8h23.1
		c0.4,0,0.8-0.3,0.8-0.8v-6.8c0-0.4-0.3-0.8-0.8-0.8h-31.5c-0.6,0-1.1,0.5-1.1,1.1v29.4c0,0.6,0.5,1.1,1.1,1.1c0,0,0,0,0,0h33.4
		c0.4,0,0.8-0.3,0.8-0.8v-6.8C240.9,109.5,240.6,109.2,240.2,109.2C240.2,109.2,240.2,109.2,240.2,109.2z"/>
</g>
</svg>
